HIERARCHY
ROOT SpineBase
{
  OFFSET 0.000000 0.000000 0.000000
  CHANNELS 6 Xposition Yposition Zposition Zrotation Xrotation Yrotation
  JOINT SpineMid
  {
    OFFSET 0.000000 32.144787 0.000000
    CHANNELS 3 Zrotation Xrotation Yrotation
    JOINT SpineShoulder
    {
      OFFSET -0.116921 23.842341 -0.891334
      CHANNELS 3 Zrotation Xrotation Yrotation
      JOINT Neck
      {
        OFFSET -0.044997 7.868042 -0.636683
        CHANNELS 3 Zrotation Xrotation Yrotation
        JOINT Head
        {
          OFFSET -7.648354 12.393336 0.543355
          CHANNELS 3 Zrotation Xrotation Yrotation
          End Site
          {
            OFFSET 0 0 0
          }
        }
      }
      JOINT ShoulderLeft
      {
        OFFSET -11.327578 -7.081875 15.206262
        CHANNELS 3 Zrotation Xrotation Yrotation
        JOINT ElbowLeft
        {
          OFFSET -0.882218 -28.052999 1.941810
          CHANNELS 3 Zrotation Xrotation Yrotation
          JOINT WristLeft
          {
            OFFSET -3.138382 -20.166857 -7.280374
            CHANNELS 3 Zrotation Xrotation Yrotation
            JOINT HandLeft
            {
              OFFSET 3.847154 -5.842428 -7.762933
              CHANNELS 3 Zrotation Xrotation Yrotation
              JOINT HandTipLeft
              {
                OFFSET -0.419236 0.251716 -1.026787
                CHANNELS 3 Zrotation Xrotation Yrotation
                End Site
                {
                  OFFSET 0 0 0
                }
              }
              JOINT ThumbLeft
              {
                OFFSET -0.969892 -0.592203 -1.932081
                CHANNELS 3 Zrotation Xrotation Yrotation
                End Site
                {
                  OFFSET 0 0 0
                }
              }
            }
          }
        }
      }
      JOINT ShoulderRight
      {
        OFFSET 10.986665 -3.584212 -10.159484
        CHANNELS 3 Zrotation Xrotation Yrotation
        JOINT ElbowRight
        {
          OFFSET 8.198781 -21.621570 -6.151146
          CHANNELS 3 Zrotation Xrotation Yrotation
          JOINT WristRight
          {
            OFFSET -1.115930 -24.702918 -4.472477
            CHANNELS 3 Zrotation Xrotation Yrotation
            JOINT HandRight
            {
              OFFSET -2.222010 -7.276149 0.176715
              CHANNELS 3 Zrotation Xrotation Yrotation
              JOINT HandTipRight
              {
                OFFSET -0.775345 -6.756820 -0.060792
                CHANNELS 3 Zrotation Xrotation Yrotation
                End Site
                {
                  OFFSET 0 0 0
                }
              }
              JOINT ThumbRight
              {
                OFFSET -2.829610 0.643595 -0.293069
                CHANNELS 3 Zrotation Xrotation Yrotation
                End Site
                {
                  OFFSET 0 0 0
                }
              }
            }
          }
        }
      }
    }
  }
  JOINT HipLeft
  {
    OFFSET -4.800903 -0.531234 0.980840
    CHANNELS 3 Zrotation Xrotation Yrotation
    JOINT KneeLeft
    {
      OFFSET 4.661762 -35.132309 4.149061
      CHANNELS 3 Zrotation Xrotation Yrotation
      JOINT AnkleLeft
      {
        OFFSET 9.588356 -27.655476 2.470594
        CHANNELS 3 Zrotation Xrotation Yrotation
        JOINT FootLeft
        {
          OFFSET 10.396205 -4.309816 -8.322352
          CHANNELS 3 Zrotation Xrotation Yrotation
          End Site
          {
            OFFSET 0 0 0
          }
        }
      }
    }
  }
  JOINT HipRight
  {
    OFFSET 4.700333 1.816637 -8.311778
    CHANNELS 3 Zrotation Xrotation Yrotation
    JOINT KneeRight
    {
      OFFSET 10.518721 -32.715317 -0.955671
      CHANNELS 3 Zrotation Xrotation Yrotation
      JOINT AnkleRight
      {
        OFFSET 10.015319 -33.146550 4.331626
        CHANNELS 3 Zrotation Xrotation Yrotation
        JOINT FootRight
        {
          OFFSET -4.062778 -7.224853 0.329590
          CHANNELS 3 Zrotation Xrotation Yrotation
          End Site
          {
            OFFSET 0 0 0
          }
        }
      }
    }
  }
}
MOTION
Frames: 14
Frame Time: 0.033333
1.387785 72.162268 350.406357 -0.000000 0.000000 44.364025 0.000000 0.000000 -44.364025 -0.000000 0.000000 0.000000 -0.000000 0.000000 0.000000 0.000000 0.000000 0.000000 -0.000000 0.000000 0.000000 -0.000000 0.000000 0.000000 -0.000000 0.000000 0.000000 -0.000000 0.000000 0.000000 0.000000 0.000000 0.000000 0.000000 0.000000 0.000000 -0.000000 0.000000 0.000000 -0.000000 0.000000 0.000000 -0.000000 0.000000 0.000000 -0.000000 0.000000 0.000000 0.000000 0.000000 0.000000 0.000000 0.000000 0.000000 0.000000 0.000000 -44.364025 -0.000000 0.000000 0.000000 -0.000000 0.000000 0.000000 0.000000 0.000000 0.000000 0.000000 0.000000 -44.364025 -0.000000 0.000000 0.000000 -0.000000 0.000000 0.000000 0.000000 0.000000 0.000000
1.398111 72.183178 350.358745 0.065773 -0.027293 44.167978 -0.028162 0.065405 -44.167946 -0.000000 0.000000 0.000000 -0.000000 0.000000 0.000000 0.000000 0.000000 0.000000 -0.000000 0.000000 0.000000 0.390800 -1.126276 0.038192 -1.612936 -5.418546 -3.016853 16.608220 -27.321165 3.934070 0.000000 0.000000 0.000000 0.000000 0.000000 0.000000 -0.000000 0.000000 0.000000 -0.000000 0.000000 0.000000 -0.043150 -1.259988 0.383124 -0.502273 2.224188 -0.472486 0.000000 0.000000 0.000000 0.000000 0.000000 0.000000 -0.028162 0.065405 -44.167946 -0.000000 0.000000 0.000000 -4.182826 -1.767486 4.251732 0.000000 0.000000 0.000000 -0.028162 0.065405 -44.167946 -0.000000 0.000000 0.000000 -2.923191 2.444004 -1.426415 0.000000 0.000000 0.000000
1.407353 72.199901 350.316792 0.124342 -0.047676 43.972295 -0.056384 0.120643 -43.972184 -0.000000 0.000000 0.000000 -0.000000 0.000000 0.000000 0.000000 0.000000 0.000000 -0.000000 0.000000 0.000000 0.844735 -2.107417 0.038874 -3.694834 -10.446169 -5.626879 28.321938 -43.281197 5.322641 0.000000 0.000000 0.000000 0.000000 0.000000 0.000000 -0.000000 0.000000 0.000000 -0.000000 0.000000 0.000000 -0.024428 -2.264781 0.690254 -0.984926 4.000592 -0.823247 0.000000 0.000000 0.000000 0.000000 0.000000 0.000000 -0.056384 0.120643 -43.972184 0.952489 0.905669 0.390721 -9.217452 -4.675321 7.792813 0.000000 0.000000 0.000000 -0.056384 0.120643 -43.972184 -0.000000 0.000000 0.000000 -4.908756 4.502750 -2.507958 0.000000 0.000000 0.000000
1.415511 72.212435 350.280496 0.175688 -0.061139 43.777121 -0.084554 0.165695 -43.776905 -0.000000 0.000000 0.000000 -0.000000 0.000000 0.000000 0.000000 0.000000 0.000000 -0.000000 0.000000 0.000000 1.356573 -2.925125 0.000194 -6.088748 -14.816356 -7.641626 29.836119 -48.358008 0.036044 0.000000 0.000000 0.000000 0.000000 0.000000 0.000000 -0.000000 0.000000 0.000000 -0.000000 0.000000 0.000000 0.052905 -2.987880 0.914848 -1.457586 5.294794 -1.056826 0.000000 0.000000 0.000000 0.000000 0.000000 0.000000 -0.084554 0.165695 -43.776905 1.278479 1.195010 0.513705 -13.076652 -6.993840 11.012712 0.000000 0.000000 0.000000 -0.084554 0.165695 -43.776905 -0.000000 0.000000 0.000000 -6.027291 6.163434 -3.328345 0.000000 0.000000 0.000000
1.422587 72.220782 350.249858 0.219795 -0.067677 43.582610 -0.112560 0.200550 -43.582283 -0.000000 0.000000 0.000000 -0.766236 -0.395538 -0.214067 0.000000 0.000000 0.000000 -0.000000 0.000000 0.000000 1.919657 -3.565456 -0.079381 -8.622048 -18.349420 -8.837275 25.427595 -48.542783 -9.222424 0.000000 0.000000 0.000000 0.000000 0.000000 0.000000 0.065632 -0.813733 -0.327363 0.690430 0.263083 0.208944 -0.567571 -2.860789 1.166903 -1.925073 6.087363 -1.179852 0.000000 0.000000 0.000000 0.000000 0.000000 0.000000 -0.112560 0.200550 -43.582283 1.507407 1.376556 0.591777 -15.930438 -8.862343 13.317060 0.000000 0.000000 0.000000 -0.112560 0.200550 -43.582283 -0.000000 0.000000 0.000000 -6.335250 7.432285 -3.949874 0.000000 0.000000 0.000000
1.428579 72.224942 350.224878 0.256653 -0.067287 43.388927 -0.140290 0.225205 -43.388500 -0.000000 0.000000 0.000000 -0.927140 -0.434363 -0.232124 0.000000 0.000000 0.000000 -0.000000 0.000000 0.000000 2.526197 -4.019418 -0.200936 -11.136830 -20.911323 -8.933526 19.128016 -46.414208 -19.414391 0.000000 0.000000 0.000000 0.000000 0.000000 0.000000 0.089141 -1.027343 -0.415068 0.902216 0.544950 0.244738 -0.622419 -3.053522 1.261558 -2.387187 6.374094 -1.201037 0.000000 0.000000 0.000000 0.000000 0.000000 0.000000 -0.140290 0.225205 -43.388500 1.640995 1.451227 0.626593 -17.536666 -9.971726 14.504992 0.000000 0.000000 0.000000 -0.140290 0.225205 -43.388500 -0.000000 0.000000 0.000000 -5.868677 8.320549 -4.413071 0.000000 0.000000 0.000000
1.430952 72.227868 350.214282 0.280066 -0.049442 43.228095 -0.170204 0.227843 -43.227636 -0.000000 0.000000 0.000000 -1.037595 -0.406965 -0.210555 0.000000 0.000000 0.000000 -0.000000 0.000000 0.000000 3.543923 -4.827301 -0.386427 -13.493016 -20.351018 -6.010002 14.042456 -47.557246 -28.187137 0.000000 0.000000 0.000000 0.000000 0.000000 0.000000 0.130089 -1.278869 -0.521947 1.172849 1.027953 0.272567 -0.579138 -2.744416 1.181012 -2.612553 5.249412 -1.013575 0.000000 0.000000 0.000000 0.000000 0.000000 0.000000 -0.170204 0.227843 -43.227636 1.788281 1.523978 0.661587 -16.467122 -8.575272 15.711488 0.000000 0.000000 0.000000 -0.170204 0.227843 -43.227636 -0.000000 0.000000 0.000000 -3.677272 9.413621 -5.094245 0.000000 0.000000 0.000000
1.434593 72.224303 350.203382 0.294101 -0.036775 43.072379 -0.189725 0.227711 -43.071908 -0.000000 0.000000 0.000000 -1.121002 -0.358908 -0.176950 0.000000 0.000000 0.000000 -0.000000 0.000000 0.000000 4.369046 -5.037833 -0.614633 -19.512823 -24.105751 -0.386932 5.711521 -40.647631 -45.947796 0.000000 0.000000 0.000000 0.000000 0.000000 0.000000 0.162151 -1.542005 -0.630774 1.479510 1.611531 0.286816 -0.649222 -2.424215 1.072751 -3.981299 4.600931 -0.768095 0.000000 0.000000 0.000000 0.000000 0.000000 0.000000 -0.189725 0.227711 -43.071908 1.841476 1.495365 0.656073 -16.004633 -8.125954 15.464874 0.000000 0.000000 0.000000 -0.189725 0.227711 -43.071908 -0.000000 0.000000 0.000000 -0.665123 9.064749 -5.084144 0.000000 0.000000 0.000000
1.436814 72.214361 350.193948 0.306555 -0.021242 42.885383 -0.210163 0.224185 -42.884915 -0.000000 0.000000 0.000000 -1.228197 -0.338293 -0.159626 0.000000 0.000000 0.000000 0.829151 1.261084 0.008617 4.134727 -6.008286 -0.781190 -20.838216 -20.468994 6.770624 -1.654581 -36.833567 -58.888295 0.000000 0.000000 0.000000 0.000000 0.000000 0.000000 0.183872 -1.776269 -0.725815 1.786136 2.245075 0.280174 -0.703240 -1.911351 0.878942 -3.888387 3.304765 -0.537174 0.000000 0.000000 0.000000 0.000000 0.000000 0.000000 -0.210163 0.224185 -42.884915 1.729435 1.279406 0.576351 -14.942825 -7.552031 13.769737 0.000000 0.000000 0.000000 -0.210163 0.224185 -42.884915 -0.000000 0.000000 0.000000 3.106677 7.173523 -4.165851 0.000000 0.000000 0.000000
1.441466 72.199558 350.181999 0.326601 0.006879 42.634368 -0.244938 0.216152 -42.633926 -0.000000 0.000000 0.000000 -1.424456 -0.366397 -0.169541 0.000000 0.000000 0.000000 1.243240 2.059965 -0.001084 4.013079 -6.071359 -0.961255 -19.866023 -13.476726 12.156184 -9.895578 -40.723923 -68.790882 0.000000 0.000000 0.000000 0.000000 0.000000 0.000000 0.207161 -1.954340 -0.799869 1.964518 2.665517 0.288398 -0.724577 -1.774930 0.817169 -3.790784 1.607984 -0.335819 0.000000 0.000000 0.000000 0.000000 0.000000 0.000000 -0.244938 0.216152 -42.633926 1.398680 0.837701 0.403727 -13.154603 -6.780092 10.751118 0.000000 0.000000 0.000000 -0.244938 0.216152 -42.633926 -0.000000 0.000000 0.000000 2.975167 6.929895 -4.014193 0.000000 0.000000 0.000000
1.445954 72.185231 350.171272 0.356003 0.041093 42.307101 -0.290942 0.209236 -42.306697 -0.000000 0.000000 0.000000 -1.683002 -0.425750 -0.197025 0.000000 0.000000 0.000000 1.659021 2.772843 -0.012556 3.551150 -5.817618 -1.100505 -17.403032 -10.249626 11.117252 -12.568664 -40.660766 -69.460682 0.000000 0.000000 0.000000 0.000000 0.000000 0.000000 0.209806 -2.145479 -0.873438 2.044479 3.042927 0.323401 -0.623540 -1.892178 0.830979 -3.857928 2.516198 -0.419099 0.000000 0.000000 0.000000 0.000000 0.000000 0.000000 -0.290942 0.209236 -42.306697 0.915099 0.259418 0.169188 -10.843584 -6.110834 6.210456 0.000000 0.000000 0.000000 -0.290942 0.209236 -42.306697 -0.000000 0.000000 0.000000 -0.766709 3.347831 -1.890938 0.000000 0.000000 0.000000
1.449145 72.172303 350.162107 0.392284 0.078579 41.945241 -0.344299 0.203764 -41.944898 -0.000000 0.000000 0.000000 -2.052905 -0.508491 -0.235556 0.000000 0.000000 0.000000 2.070212 3.345990 -0.022472 2.848484 -5.173445 -1.237598 -15.420585 -13.204415 6.532702 -8.691146 -33.492044 -62.751862 0.000000 0.000000 0.000000 0.000000 0.000000 0.000000 0.224951 -2.413754 -0.979795 1.998842 3.442170 0.417172 -0.484490 -2.357634 0.949851 -3.668790 3.657834 -0.598312 0.000000 0.000000 0.000000 0.000000 0.000000 0.000000 -0.344299 0.203764 -41.944898 -0.000000 0.000000 0.000000 -6.024541 -4.583536 0.427943 0.000000 0.000000 0.000000 -0.344299 0.203764 -41.944898 -0.000000 0.000000 0.000000 -0.741255 2.757026 -1.562580 0.000000 0.000000 0.000000
1.450328 72.162380 350.154075 0.422764 0.110217 41.573279 -0.389411 0.198082 -41.573012 0.462479 0.669320 0.038568 -2.827051 -1.236121 -0.334531 0.000000 0.000000 0.000000 1.956007 3.118150 -0.047600 2.821341 -6.407961 -1.160453 -14.502618 -14.550544 2.774508 -8.797113 -32.535710 -60.646667 0.000000 0.000000 0.000000 0.000000 0.000000 0.000000 -0.256575 -3.174430 -1.051984 1.923417 3.408766 0.472934 -0.122541 -2.310769 0.967822 -3.731670 3.282319 -0.588196 0.000000 0.000000 0.000000 0.000000 0.000000 0.000000 -0.389411 0.198082 -41.573012 -0.000000 0.000000 0.000000 -7.484837 -4.209629 5.233853 0.000000 0.000000 0.000000 -0.389411 0.198082 -41.573012 -0.000000 0.000000 0.000000 2.204710 -2.623475 1.642551 0.000000 0.000000 0.000000
1.447157 72.153940 350.158347 0.484951 0.153259 41.191809 -0.465864 0.204052 -41.191628 0.577515 0.737149 0.047257 -3.221170 -1.493758 -0.465060 0.000000 0.000000 0.000000 2.013522 3.331886 -0.062307 2.459494 -7.856995 -0.863211 -12.018327 -8.319423 3.273660 -10.770414 -35.290421 -60.106712 0.000000 0.000000 0.000000 0.000000 0.000000 0.000000 -0.295645 -3.350211 -1.122684 1.780472 3.571206 0.544758 0.211489 -2.141667 0.903368 -4.683796 2.791040 -0.477868 0.000000 0.000000 0.000000 0.000000 0.000000 0.000000 -0.465864 0.204052 -41.191628 -0.000000 0.000000 0.000000 -8.138816 -4.719151 5.360208 0.000000 0.000000 0.000000 -0.465864 0.204052 -41.191628 -0.000000 0.000000 0.000000 1.421115 -2.201034 1.338101 0.000000 0.000000 0.000000
